<?xml version="1.0" encoding="utf-8"?>
<!-- Generator: Adobe Illustrator 25.0.0, SVG Export Plug-In . SVG Version: 6.00 Build 0)  -->
<svg version="1.1" id="Layer_1" xmlns="http://www.w3.org/2000/svg" xmlns:xlink="http://www.w3.org/1999/xlink" x="0px" y="0px"
	 viewBox="0 0 100 100" style="enable-background:new 0 0 100 100;" xml:space="preserve">
<style type="text/css">
	.st0{fill:url(#SVGID_1_);}
	.st1{fill:#FFFFFF;}
</style>
<g>
	<linearGradient id="SVGID_1_" gradientUnits="userSpaceOnUse" x1="0" y1="50" x2="100" y2="50">
		<stop  offset="0" style="stop-color:#4FC646"/>
		<stop  offset="1" style="stop-color:#3FB06B"/>
	</linearGradient>
	<path class="st0" d="M100,50c0,13.81-5.59,26.31-14.65,35.36C76.31,94.4,63.81,100,50,100C22.39,100,0,77.61,0,50
		c0-13.81,5.59-26.3,14.65-35.35C23.69,5.6,36.19,0,50,0S76.31,5.6,85.35,14.65C94.41,23.69,100,36.19,100,50z"/>
	<path class="st1" d="M79.22,20.77L42.67,79.94c-0.74,1.19-2.45,1.25-3.27,0.11L20.82,54.04c-0.67-0.94,0.41-2.12,1.41-1.54
		l17.6,10.32L77.5,19.51C78.36,18.52,79.9,19.65,79.22,20.77z"/>
</g>
</svg>
