<svg width="0" height="0" class="hidden">
  <symbol version="1.1" id="easy" xmlns="http://www.w3.org/2000/svg" xmlns:xlink="http://www.w3.org/1999/xlink" x="0px" y="0px" xml:space="preserve" viewBox="0 0 512 512">
    <path d="M401,512c-3.74-2.61-4.93-6.18-4.88-10.71c0.19-15.33-0.23-30.67,0.22-45.99c0.17-5.87,1.14-12.05,3.29-17.48
	c11.22-28.4,16.65-57.73,16.46-88.28c-0.28-44.66,0-89.33-0.09-133.99c-0.04-16.9-15.99-28.15-31.44-22.44
	c-9.24,3.42-15.14,11.91-15.33,22.47c-0.15,8.16,0.01,16.33-0.06,24.5c-0.05,5.68-2.63,8.82-7.17,8.96
	c-4.75,0.14-7.77-3.15-7.8-8.95c-0.09-17,0.11-34-0.14-51c-0.17-11.3-9.17-20.89-20.03-22.09c-11.92-1.32-22.69,5.63-25.61,16.84
	c-0.79,3.01-0.88,6.27-0.89,9.41c-0.09,14.83-0.03,29.67-0.05,44.5c0,1.83,0.03,3.7-0.35,5.47c-0.79,3.73-3.29,5.75-7.08,5.79
	c-3.8,0.04-6.36-1.92-7.19-5.65c-0.42-1.92-0.38-3.97-0.39-5.96c-0.03-19.67,0.16-39.33-0.09-59
	c-0.21-16.25-13.59-26.95-28.77-23.44c-10.55,2.44-17.73,11.5-17.8,22.99c-0.12,20-0.03,40-0.07,60c0,1.98-0.04,4.04-0.59,5.92
	c-1.06,3.67-3.81,5.43-7.58,5.12s-6.11-2.5-6.66-6.28c-0.26-1.8-0.15-3.66-0.15-5.49c-0.01-53.83-0.03-107.66,0.02-161.49
	c0.01-10.16-3.59-18.28-12.8-23.14c-15.11-7.97-33.61,2.75-33.96,19.84c-0.32,15.83-0.09,31.66-0.09,47.5
	c0,24.67,0.01,49.33-0.02,74c0,1.82,0.11,3.73-0.38,5.45c-1.01,3.59-3.59,5.68-7.37,5.52c-3.98-0.16-6.41-2.49-7.14-6.43
	c-0.18-0.97-0.1-1.99-0.1-2.99c0-40.66-0.1-81.33,0.04-121.99c0.08-22.28,17.61-39.03,39.83-38.49c20.7,0.5,36.76,17.51,36.94,39.5
	c0.18,22,0.04,44,0.04,66c0,1.82,0,3.63,0,6.3c10.64-6.73,21.45-9.44,33.23-6.2c11.64,3.2,19.79,10.58,25.34,21.52
	c11.72-9.78,24.76-13.13,39.18-8.11c14.26,4.97,22.32,15.63,25.55,30.61c10.56-7.38,21.66-9.68,33.64-6.57
	c16.22,4.21,28.2,19.07,28.25,35.85c0.14,49.83,0.35,99.66-0.2,149.49c-0.3,26.69-6.61,52.38-16.13,77.34
	c-2.08,5.45-3.08,11.57-3.26,17.43c-0.45,14.65-0.28,29.33-0.07,43.99c0.06,4.5-1.34,7.74-5.28,9.87C404.33,512,402.66,512,401,512z
	"></path>
    <path d="M207.96,512c-3.78-2.58-4.97-6.13-4.92-10.67c0.19-17.15,0.07-34.3,0.07-51.7c-3.32-1.08-6.47-2.02-9.55-3.13
	c-20.05-7.23-36.31-19.53-48.38-37.07c-27.1-39.38-54.11-78.82-80.97-118.37C51.9,272.92,55.4,249.94,72,236.8
	c16.79-13.29,39.53-11.65,54.65,4.3c12.84,13.55,25.34,27.41,37.96,41.17c1.09,1.19,1.94,2.61,2.89,3.92
	c0.39-0.24,0.79-0.48,1.18-0.73c0.07-1.58,0.2-3.15,0.2-4.73c0.02-16.5-0.01-33,0.02-49.5c0.01-5.82,2.84-9.23,7.48-9.22
	c4.63,0.02,7.49,3.43,7.5,9.25c0.04,20.67,0,41.33,0.03,62c0.01,5.69-2.1,10.09-7.5,12.4c-5.03,2.16-9.86,0.82-14.32-4.01
	c-15.38-16.65-30.69-33.36-46.06-50.02c-6.48-7.02-14.5-10.08-23.91-8.13c-18.21,3.77-25.95,23.69-15.26,39.47
	c18.12,26.76,36.46,53.36,54.7,80.04c8.18,11.96,16.42,23.88,24.53,35.89c12.58,18.62,29.68,30.71,51.51,36.13
	c7.54,1.87,10.47,5.66,10.49,13.57c0.05,17.83-0.1,35.67,0.09,53.5c0.05,4.5-1.35,7.73-5.24,9.9C211.29,512,209.63,512,207.96,512z"></path>
    <path d="M216.96,0c7.79,2.23,15.6,4.37,23.35,6.73c2.2,0.67,4.28,1.84,6.32,2.95c4.76,2.6,6.31,6.71,4.15,10.7
	c-2.06,3.8-6,4.46-10.88,2.75c-7.95-2.79-15.91-6.13-24.16-7.43c-35.51-5.61-71.43,22.26-75.88,58.01
	c-1.74,13.97,0.27,27.16,6.23,39.84c2.49,5.3,1.38,9.49-2.83,11.51c-4.2,2.02-8.05,0.17-10.7-5.14
	c-24.82-49.74,7.52-111.2,62.58-118.96c1.29-0.18,2.55-0.63,3.82-0.95C204.96,0,210.96,0,216.96,0z"></path>
    <path d="M78.36,83.31c0.59-18.96,4.55-36.99,12.55-54.13c1.65-3.53,4.49-6.12,8.19-4.83c2.5,0.87,5,3.67,6.03,6.21
	c0.74,1.83-0.62,4.78-1.59,7c-6.55,15-9.78,30.64-9.64,47.01c0.13,15.5,3.31,30.34,9.5,44.54c0.46,1.07,1.02,2.1,1.4,3.19
	c1.55,4.45,0.06,8.34-3.8,10.05c-3.79,1.68-8.29,0.25-9.85-4.11c-3.68-10.29-7.39-20.64-9.97-31.23
	C79.32,99.34,79.24,91.23,78.36,83.31z"></path>
    <path d="M336.53,84.65c-0.07,17.35-3.72,35.12-11.47,52.01c-2.48,5.41-6.21,7.51-10.39,5.83c-4.5-1.81-5.82-6.18-3.39-11.74
	c13.73-31.43,13.75-62.84,0.06-94.28c-2.49-5.72-1.32-9.84,3.22-11.78c4.23-1.8,7.96,0.2,10.45,5.62
	C332.75,47.17,336.46,64.93,336.53,84.65z"></path>
    <path d="M291.17,85.31c0.13,11.24-2.8,23.27-8.31,34.68c-2.56,5.31-6.5,7.09-10.75,5.02c-4.28-2.08-5.24-6.08-2.77-11.55
	c10.95-24.3,9.02-47.53-5.84-69.67c-3.53-5.26-3.21-9.5,0.9-12.19c3.9-2.55,7.91-1.32,11.36,3.55
	C286.08,49.74,291.24,65.96,291.17,85.31z"></path>
  </symbol>
  <symbol version="1.1" id="growth" xmlns="http://www.w3.org/2000/svg" xmlns:xlink="http://www.w3.org/1999/xlink" x="0px" y="0px" xml:space="preserve" viewBox="0 0 980 700">
    <path d="M980,6.55c-3.99,15.77-7.8,31.59-12.01,47.29c-12.52,46.7-25.11,93.38-37.87,140.01c-3.19,11.67-4.39,11.96-13.67,4.04
	c-6.58-5.62-12.76-11.7-18.97-17.74c-5.84-5.68-11.47-11.57-17.5-17.67c-1.7,1.59-3.13,2.87-4.49,4.22
	c-102.4,101.81-204.77,203.64-307.21,305.4c-8.15,8.09-16.92,15.56-25.03,23.7c-3.85,3.87-6.56,3.6-10.28,0
	c-19.51-18.86-39.38-37.37-58.75-56.38c-24.49-24.03-48.62-48.42-72.91-72.65c-1.27-1.26-2.59-2.47-5.03-4.78
	c-1.3,1.88-2.2,3.76-3.6,5.15C291.65,467.7,190.57,568.24,89.44,668.72c-9.57,9.5-19.6,18.53-29.28,27.93
	c-3.11,3.02-6.03,3.1-9.25,0.57c-2.35-1.85-4.78-3.65-6.9-5.75c-12.08-11.95-24.12-23.93-36.05-36.01
	c-2.88-2.91-5.31-6.27-7.95-9.42c0-1.33,0-2.66,0-4C61,580.09,121.59,517.75,183.07,456.28c66.32-66.3,133.46-131.79,200.26-197.62
	c3.44-3.39,7.23-6.43,10.56-9.91c2.55-2.66,4.54-2.47,7.08-0.07c15.11,14.32,30.55,28.3,45.39,42.89
	c29.46,28.96,58.61,58.24,87.83,87.44c1.28,1.28,2.06,3.05,2.85,4.24c94.53-94.47,188.04-187.92,282.38-282.2
	c-8.43-8.12-17.25-16.44-25.86-24.98c-4.01-3.98-7.81-8.21-11.37-12.61c-4.74-5.85-4.43-7.55,2.57-9.81
	c14.87-4.8,29.79-9.49,44.86-13.57c47.35-12.82,94.77-25.38,142.2-37.87c2.52-0.66,5.45,0.18,8.18,0.32C980,3.89,980,5.22,980,6.55z
	"></path>
  </symbol>
  <symbol version="1.1" id="line" xmlns="http://www.w3.org/2000/svg" xmlns:xlink="http://www.w3.org/1999/xlink" x="0px" y="0px" xml:space="preserve" viewBox="0 0 800 800">
    <rect y="383.88" width="800" height="32.23"></rect>
  </symbol>
  <symbol version="1.1" id="menu" xmlns="http://www.w3.org/2000/svg" xmlns:xlink="http://www.w3.org/1999/xlink" x="0px" y="0px" xml:space="preserve" viewBox="0 0 800 800">
    <path id="XMLID_241_" d="M80,160h640c44.18,0,80-35.82,80-80S764.18,0,720,0H80C35.82,0,0,35.82,0,80S35.82,160,80,160z"></path>
    <path id="XMLID_242_" d="M720,320H80c-44.18,0-80,35.82-80,80s35.82,80,80,80h640c44.18,0,80-35.82,80-80S764.18,320,720,320z"></path>
    <path id="XMLID_243_" d="M720,640H80c-44.18,0-80,35.82-80,80c0,44.18,35.82,80,80,80h640c44.18,0,80-35.82,80-80
	C800,675.82,764.18,640,720,640z"></path>
  </symbol>
  <symbol version="1.1" id="Quotes" xmlns="http://www.w3.org/2000/svg" xmlns:xlink="http://www.w3.org/1999/xlink" x="0px" y="0px" xml:space="preserve" viewBox="0 0 512.5 512.5">
    <path d="M112.5,208.25c61.86,0,112,50.14,112,112s-50.14,112-112,112s-112-50.14-112-112l-0.5-16c0-123.71,100.29-224,224-224v64
	c-42.74,0-82.92,16.64-113.14,46.86c-5.82,5.82-11.13,12.01-15.92,18.51C100.67,208.72,106.53,208.25,112.5,208.25z M400.5,208.25
	c61.86,0,112,50.14,112,112s-50.14,112-112,112s-112-50.14-112-112l-0.5-16c0-123.71,100.29-224,224-224v64
	c-42.74,0-82.92,16.64-113.14,46.86c-5.82,5.82-11.13,12.01-15.92,18.51C388.67,208.72,394.53,208.25,400.5,208.25z"></path>
  </symbol>
  <symbol version="1.1" id="search" xmlns="http://www.w3.org/2000/svg" xmlns:xlink="http://www.w3.org/1999/xlink" x="0px" y="0px" xml:space="preserve" viewBox="0 0 100 100">
    <path d="M9,38.88c0.12-1.39,0.2-2.78,0.36-4.16c0.87-7.31,3.6-13.87,8.17-19.62C23.29,7.84,30.7,3.11,39.73,1.05
	c19.61-4.47,39.54,6.42,45.95,25.5c4.96,14.76,1.95,28.15-8.36,39.85c-0.19,0.22-0.4,0.42-0.61,0.66c0.75,0.86,1.5,1.7,2.23,2.54
	c5.5,6.37,10.99,12.74,16.49,19.12c1.64,1.9,2.9,4.02,3.37,6.52c0.11,0.61,0.15,1.25,0.11,1.86c-0.15,2.17-1.64,3.22-3.76,2.69
	c-1.67-0.42-3.07-1.34-4.21-2.57c-1.94-2.09-3.79-4.26-5.66-6.42c-4.36-5.04-8.72-10.08-13.05-15.15c-0.81-0.94-1.49-1.99-2.26-3.04
	c-0.57,0.34-1.18,0.72-1.81,1.08C61,77.77,53.31,79.5,45.12,78.76C28.31,77.24,14.67,65.7,10.35,49.43
	c-0.71-2.68-1.12-5.42-1.22-8.2C9.09,40.87,9.04,40.5,9,40.13C9,39.71,9,39.29,9,38.88z M47.93,6.9
	c-7.61,0.11-14.89,2.65-21.16,7.93c-12.21,10.29-15.14,27.71-6.95,41.21c9.88,16.29,31.65,21.01,47.5,10.31
	c11.58-7.81,16.94-21.9,13.35-35.11C76.78,16.86,63.58,6.89,47.93,6.9z"></path>
  </symbol>
  <symbol version="1.1" id="settings" xmlns="http://www.w3.org/2000/svg" xmlns:xlink="http://www.w3.org/1999/xlink" x="0px" y="0px" xml:space="preserve" viewBox="0 0 800 800">
    <path d="M759.05,316.02l-56.15-9.53c-5.85-18.88-13.37-37.1-22.56-54.48l33.09-46.29c14.04-19.72,11.87-46.63-5.35-63.67l-49.8-49.8
	c-9.36-9.36-21.73-14.54-34.93-14.54c-10.36,0-20.22,3.18-28.58,9.19l-46.46,33.09c-18.05-9.53-36.93-17.38-56.49-23.23l-9.36-55.48
	C478.46,17.38,457.9,0,433.67,0h-70.36c-24.23,0-44.79,17.38-48.8,41.28l-9.69,56.82c-18.72,5.85-36.93,13.54-54.31,22.9
	l-45.96-33.09c-8.36-6.02-18.38-9.19-28.74-9.19c-13.2,0-25.74,5.18-34.93,14.54l-49.97,49.8c-17.05,17.05-19.39,43.95-5.35,63.67
	l33.42,46.96c-9.19,17.55-16.54,35.76-22.23,54.65l-55.48,9.36C17.38,321.7,0,342.26,0,366.49v70.36c0,24.23,17.38,44.79,41.28,48.8
	l56.82,9.69c5.85,18.72,13.54,36.93,22.9,54.31l-32.92,45.79c-14.04,19.72-11.87,46.63,5.35,63.67l49.8,49.8
	c9.36,9.36,21.73,14.54,34.93,14.54c10.36,0,20.22-3.18,28.58-9.19l46.96-33.42c16.88,8.86,34.59,16.04,52.81,21.73l9.36,56.15
	c4.01,23.9,24.57,41.28,48.8,41.28h70.52c24.23,0,44.79-17.38,48.8-41.28l9.53-56.15c18.88-5.85,37.1-13.37,54.48-22.56l46.29,33.09
	c8.36,6.02,18.38,9.19,28.74,9.19l0,0c13.2,0,25.57-5.18,34.93-14.54l49.8-49.8c17.05-17.05,19.39-43.95,5.35-63.67L680,547.82
	c9.19-17.55,16.88-35.76,22.56-54.48l56.15-9.36c23.9-4.01,41.28-24.57,41.28-48.8v-70.36
	C800.33,340.59,782.95,320.03,759.05,316.02z M755.21,435.18c0,2.17-1.5,4.01-3.68,4.35l-70.19,11.7
	c-8.86,1.5-15.88,8.02-18.05,16.54c-6.35,24.57-16.04,48.13-29.08,70.02c-4.51,7.69-4.18,17.21,1,24.57l41.28,58.16
	c1.17,1.67,1,4.18-0.5,5.68l-49.8,49.8c-1.17,1.17-2.34,1.34-3.18,1.34c-1,0-1.84-0.33-2.51-0.84l-57.99-41.28
	c-7.19-5.18-16.88-5.51-24.57-1c-21.89,13.04-45.46,22.73-70.02,29.08c-8.69,2.17-15.21,9.36-16.54,18.05l-11.87,70.19
	c-0.33,2.17-2.17,3.68-4.35,3.68h-70.36c-2.17,0-4.01-1.5-4.35-3.68l-11.7-70.19c-1.5-8.86-8.02-15.88-16.54-18.05
	c-23.9-6.18-46.96-15.71-68.52-28.08c-3.51-2.01-7.52-3.01-11.36-3.01c-4.51,0-9.19,1.34-13.04,4.18L180.82,678
	c-0.84,0.5-1.67,0.84-2.51,0.84c-0.67,0-2.01-0.17-3.18-1.34l-49.8-49.8c-1.5-1.5-1.67-3.84-0.5-5.68l41.11-57.66
	c5.18-7.35,5.51-17.05,1-24.73c-13.04-21.73-23.06-45.29-29.41-69.86c-2.34-8.52-9.36-15.04-18.05-16.54L48.8,441.19
	c-2.17-0.33-3.68-2.17-3.68-4.35v-70.36c0-2.17,1.5-4.01,3.68-4.35l69.69-11.7c8.86-1.5,16.04-8.02,18.22-16.71
	c6.18-24.57,15.71-48.3,28.58-70.19c4.51-7.69,4.01-17.21-1.17-24.4l-41.61-58.49c-1.17-1.67-1-4.18,0.5-5.68l49.8-49.8
	c1.17-1.17,2.34-1.34,3.18-1.34c1,0,1.84,0.33,2.51,0.84l57.66,41.11c7.35,5.18,17.05,5.51,24.73,1
	c21.73-13.04,45.29-23.06,69.86-29.41c8.52-2.34,15.04-9.36,16.54-18.05l12.03-70.69c0.33-2.17,2.17-3.68,4.35-3.68h70.36
	c2.17,0,4.01,1.5,4.35,3.68l11.7,69.69c1.5,8.86,8.02,16.04,16.71,18.22c25.23,6.35,49.3,16.21,71.69,29.41
	c7.69,4.51,17.21,4.18,24.57-1l57.66-41.45c0.84-0.5,1.67-0.84,2.51-0.84c0.67,0,2.01,0.17,3.18,1.34l49.8,49.8
	c1.5,1.5,1.67,3.84,0.5,5.68l-41.28,57.99c-5.18,7.19-5.51,16.88-1,24.57c13.04,21.89,22.73,45.46,29.08,70.02
	c2.17,8.69,9.36,15.21,18.05,16.54l70.19,11.87c2.17,0.33,3.68,2.17,3.68,4.35v70.36H755.21z"></path>
    <path d="M400.08,227.28c-95.26,0-172.63,77.38-172.63,172.63s77.38,172.63,172.63,172.63s172.63-77.38,172.63-172.63
	S495.34,227.28,400.08,227.28z M400.08,527.43c-70.36,0-127.51-57.15-127.51-127.51S329.72,272.4,400.08,272.4
	s127.51,57.15,127.51,127.51S470.44,527.43,400.08,527.43z"></path>
  </symbol>
  <symbol version="1.1" id="snapchat" xmlns="http://www.w3.org/2000/svg" xmlns:xlink="http://www.w3.org/1999/xlink" x="0px" y="0px" xml:space="preserve" viewBox="0 0 800 800">
    <path d="M599.37,0H200C90.16,0,0,90.16,0,200.63V600c0,109.84,90.16,200,200,200h399.37C709.84,800,800,709.84,800,599.37V200.63
	C800,90.16,709.84,0,599.37,0z M639.37,531.43c-1.9,3.81-6.35,7.62-13.97,11.43c-10.16,5.08-26.03,8.89-46.98,12.06
	c-1.9,0.63-3.81,1.9-5.08,3.81c-1.27,1.9-1.9,6.35-3.17,12.06l-0.63,3.17c-0.63,2.54-1.27,5.71-1.9,8.25
	c-1.27,3.17-3.17,5.08-6.98,5.08c-1.9,0-5.08,0-10.16-1.27c-6.98-1.27-15.87-3.17-27.3-3.17c-6.98,0-13.33,0.63-19.68,1.9
	c-13.33,2.54-25.4,10.16-38.1,19.05c-17.14,12.06-36.19,26.03-65.4,26.03c-1.27,0-2.54,0-3.17,0s-0.63,0-1.27,0
	c-0.63,0-1.27,0-1.27,0c-29.21,0-48.25-13.97-66.03-26.03c-12.06-8.25-23.49-16.51-37.46-19.05c-6.35-1.27-13.33-1.9-19.68-1.9
	c-11.43,0-20.32,1.9-26.67,3.17h-0.63c-3.17,0.63-6.98,1.27-10.16,1.27c-3.81,0-6.35-1.27-7.62-5.08
	c-2.54-4.44-3.81-7.62-4.44-10.79l-0.63-1.9c-1.27-5.08-1.9-9.52-3.81-12.06c-0.63-1.9-2.54-3.17-4.44-3.17
	c-20.95-3.17-36.83-7.62-47.62-12.06c-6.98-3.17-12.06-6.98-13.97-10.79c-0.63-1.27-0.63-2.54-0.63-3.17c0-0.63,0-0.63,0-1.27
	c2.54-2.54,3.81-3.81,5.71-4.44c16.51-2.54,31.75-8.89,45.08-17.78c11.43-6.98,22.22-16.51,31.75-27.94
	c16.51-19.05,24.76-37.46,26.03-40.63v-0.63c4.44-8.25,5.08-15.87,2.54-21.59c-5.08-11.43-20.32-16.51-31.11-19.68l-1.9-0.63
	c-1.9-0.63-3.81-1.27-5.08-1.9c-7.62-3.17-13.33-6.35-16.51-9.52c-5.08-4.44-5.71-8.89-5.08-11.43c0.63-3.17,3.17-6.98,7.62-9.52
	c5.71-3.17,13.33-4.44,17.78-1.9c14.6,6.98,26.67,8.89,35.56,4.44c2.54-1.27,3.81-3.81,3.81-6.35c0-3.81-0.63-7.62-0.63-11.43v-0.63
	c-1.9-33.02-4.44-74.29,5.71-97.78c7.62-16.51,17.14-30.48,29.21-41.9c10.16-9.52,21.59-17.14,34.92-22.86
	c22.86-10.16,43.81-11.43,54.6-11.43H400c10.79,0,31.75,1.27,54.6,11.43c13.33,5.71,24.76,13.33,34.92,22.86
	c12.06,11.43,22.22,25.4,29.21,41.9c10.79,23.49,7.62,64.76,5.71,97.14v1.9c0,2.54-0.63,4.44-0.63,6.98v3.17
	c0,2.54,1.27,5.08,3.81,6.35c2.54,1.27,5.71,1.9,8.89,1.9c0,0,0.63,0,1.27,0c6.98-0.63,14.6-2.54,22.86-6.35
	c3.17-1.27,6.35-1.27,7.62-1.27c3.17,0,5.71,0.63,8.89,1.9c6.98,2.54,12.06,7.62,12.06,12.7c0,1.9-0.63,5.08-4.44,8.89
	c-3.81,3.81-9.52,6.98-17.78,10.79c-1.27,0.63-3.17,1.27-4.44,1.27l-1.9,0.63c-10.16,3.17-26.03,8.25-31.11,19.68
	c-2.54,5.71-1.9,13.33,2.54,22.22c0,0.63,0,0.63,0.63,1.27c5.71,12.7,37.46,74.92,102.86,85.71c2.54,0.63,4.44,2.54,4.44,5.71
	C640,529.52,639.37,530.79,639.37,531.43z"></path>
  </symbol>
  <symbol version="1.1" id="wordpress" xmlns="http://www.w3.org/2000/svg" xmlns:xlink="http://www.w3.org/1999/xlink" x="0px" y="0px" xml:space="preserve" viewBox="0 0 800 800">
    <path d="M400.02,0C179.44,0,0.01,179.43,0.01,399.98c0,220.57,179.44,400.02,400,400.02c220.55,0,399.98-179.44,399.98-400.02
	C799.99,179.43,620.57,0,400.02,0z M40.37,399.98c0-52.13,11.18-101.64,31.14-146.35l171.55,470.02
	C123.11,665.35,40.37,542.34,40.37,399.98z M400.02,759.64c-35.3,0-69.38-5.18-101.6-14.66l107.9-313.54L516.88,734.3
	c0.71,1.79,1.59,3.42,2.56,4.95C482.06,752.4,441.9,759.64,400.02,759.64z M449.57,231.37c21.65-1.14,41.17-3.42,41.17-3.42
	c19.37-2.29,17.1-30.76-2.3-29.63c0,0-58.25,4.56-95.86,4.56c-35.33,0-94.73-4.56-94.73-4.56c-19.38-1.14-21.65,28.49-2.27,29.63
	c0,0,18.35,2.29,37.71,3.42l56.03,153.52l-78.7,236.03L179.68,231.38c21.68-1.13,41.16-3.42,41.16-3.42
	c19.37-2.29,17.08-30.77-2.31-29.61c0,0-58.22,4.56-95.84,4.56c-6.76,0-14.71-0.17-23.14-0.43
	c64.29-97.65,174.84-162.11,300.47-162.11c93.64,0,178.88,35.79,242.85,94.41c-1.55-0.08-3.06-0.29-4.67-0.29
	c-35.31,0-60.38,30.77-60.38,63.83c0,29.63,17.08,54.71,35.31,84.34c13.69,23.96,29.65,54.74,29.65,99.19
	c0,30.79-11.82,66.5-27.37,116.26l-35.87,119.88L449.57,231.37z M580.81,710.86l109.85-317.61c20.54-51.3,27.35-92.32,27.35-128.82
	c0-13.23-0.86-25.52-2.43-36.98c28.1,51.23,44.08,110.02,44.06,172.55C759.63,532.67,687.71,648.51,580.81,710.86z"></path>
  </symbol>
  <symbol version="1.1" id="chevron" xmlns="http://www.w3.org/2000/svg" xmlns:xlink="http://www.w3.org/1999/xlink" x="0px" y="0px" xml:space="preserve" viewBox="0 0 800 800">
    <path d="M223.18,800c-11.83,0-23.71-4.51-32.77-13.59c-18.1-18.1-18.1-47.4,0-65.5L511.34,400L190.41,79.08
	c-18.1-18.1-18.1-47.42,0-65.5c18.1-18.1,47.42-18.1,65.52,0l353.65,353.65c18.1,18.1,18.1,47.42,0,65.5L255.93,786.4
	C246.9,795.47,235.04,800,223.18,800z"></path>
  </symbol>
  <symbol version="1.1" id="clock" xmlns="http://www.w3.org/2000/svg" xmlns:xlink="http://www.w3.org/1999/xlink" x="0px" y="0px" xml:space="preserve" viewBox="0 0 800 800">
    <path d="M575.57,502.62L416.39,391.31V200c0-9.02-7.38-16.39-16.39-16.39c-9.02,0-16.39,7.38-16.39,16.39v200
	c0,5.41,2.62,10.33,7.05,13.44l166.23,116.23c2.79,1.97,6.07,2.95,9.34,2.95l0,0c5.08,0,10.16-2.46,13.44-7.21
	C584.75,518.03,582.95,507.87,575.57,502.62z"></path>
    <path d="M682.62,117.38L682.62,117.38C606.89,41.64,506.56,0,400,0S193.11,41.64,117.38,117.38S0,293.44,0,400
	s41.64,206.89,117.38,282.62S293.44,800,400,800s206.89-41.64,282.62-117.38S800,506.56,800,400S758.36,193.11,682.62,117.38z
	 M416.39,766.89L416.39,766.89V700c0-9.02-7.38-16.39-16.39-16.39c-9.02,0-16.39,7.38-16.39,16.39v66.89
	C194.1,758.52,41.48,605.9,33.11,416.39H100c9.02,0,16.39-7.38,16.39-16.39c0-9.02-7.38-16.39-16.39-16.39H33.11
	C41.48,194.1,194.1,41.48,383.61,33.11V100c0,9.02,7.38,16.39,16.39,16.39c9.02,0,16.39-7.38,16.39-16.39V33.11
	C605.9,41.48,758.52,194.1,766.89,383.61H700c-9.02,0-16.39,7.38-16.39,16.39c0,9.02,7.38,16.39,16.39,16.39h66.89
	C758.52,605.9,605.9,758.52,416.39,766.89z"></path>
  </symbol>
  <symbol version="1.1" id="computer" xmlns="http://www.w3.org/2000/svg" xmlns:xlink="http://www.w3.org/1999/xlink" x="0px" y="0px" xml:space="preserve" viewBox="0 0 800 800">
    <path d="M751.58,269.77H599.73v-23.45h151.85V269.77z M751.58,285.06H599.73v23.5h151.85V285.06z M751.49,178.67H599.87
	v51.67h151.62V178.67z M800,123.12v553.83c-0.02,8.3-6.79,15.06-15.11,15.06H566.47c-8.34,0-15.09-6.76-15.09-15.09v-553.8
	c0-8.32,6.74-15.11,15.09-15.11h218.42C793.24,108.01,800,114.8,800,123.12z M769.81,138.16H581.53v523.68h188.27V138.16z
	 M751.58,323.83H599.73v23.43h151.85V323.83z M726.88,498.58c0,27.01-21.83,48.79-48.74,48.79c-26.96,0-48.79-21.8-48.79-48.79
	c0-26.92,21.85-48.77,48.79-48.77C705.05,449.81,726.88,471.68,726.88,498.58z M709.28,498.58c0-17.18-13.95-31.17-31.17-31.17
	c-17.25,0-31.19,13.97-31.19,31.17c0,17.2,13.95,31.15,31.19,31.15C695.33,529.72,709.28,515.78,709.28,498.58z M509.9,214.26
	v313.91c0,18.92-15.22,34.24-33.96,34.24H306.35c0,0-9.62,68.52,51.41,68.52v34.28h-51.41H203.57h-51.41v-34.24
	c58.78,0,51.41-68.52,51.41-68.52H34.05C15.25,562.45,0,547.13,0,528.21V214.26c0-18.92,15.25-34.17,34.05-34.17h441.86
	C494.67,180.09,509.9,195.34,509.9,214.26z M286.64,520.52c0-16.22-13.16-29.36-29.38-29.36c-16.25,0-29.43,13.13-29.43,29.36
	s13.16,29.4,29.43,29.4C273.51,549.92,286.64,536.74,286.64,520.52z M473.5,216.42H36.45V481.1h437.03h0.02V216.42z M257.56,502.13
	c-10.09,0-18.25,8.18-18.25,18.25s8.18,18.25,18.25,18.25c10.06,0,18.25-8.18,18.25-18.25S267.65,502.13,257.56,502.13z"></path>
  </symbol>
</svg>